# xmcd CD database file
#
# Track frame offsets:
#	150
#	4625
#	36013
#	65355
#	97825
#	125735
#	153340
#	173775
#
# Disc length: 2725 seconds
#
# Revision: 0
# Processed by: cddbd v1.5.2PL0 Copyright (c) Steve Scherf et al.
# Submitted via: CDex 1.70beta2
#
DISCID=580aa308
DTITLE=Ｔｈｅ Ｃｏｓｍｏ α - 宇宙生命エネルギー音楽
DYEAR=1900
DGENRE=宇宙生命エネルギー音楽
TTITLE0=ナレーション
TTITLE1=天の音楽
TTITLE2=空の音楽
TTITLE3=力の音楽
TTITLE4=法の音楽
TTITLE5=無の音楽
TTITLE6=元の音楽
TTITLE7=主の音楽
EXTD=
EXTT0=
EXTT1=
EXTT2=
EXTT3=
EXTT4=
EXTT5=
EXTT6=
EXTT7=
PLAYORDER=
